<svg width="227" height="39" viewBox="0 0 227 39" fill="none" xmlns="http://www.w3.org/2000/svg">
<rect width="35" height="39" rx="5" fill="#00AAAA"/>
<path d="M18.5057 10.5455H22.1534V22.7159C22.1534 23.8409 21.9006 24.8182 21.3949 25.6477C20.8949 26.4773 20.1989 27.1165 19.3068 27.5653C18.4148 28.0142 17.3778 28.2386 16.196 28.2386C15.1449 28.2386 14.1903 28.054 13.3324 27.6847C12.4801 27.3097 11.804 26.7415 11.304 25.9801C10.804 25.2131 10.5568 24.25 10.5625 23.0909H14.2358C14.2472 23.5511 14.3409 23.946 14.517 24.2756C14.6989 24.5994 14.946 24.8494 15.2585 25.0256C15.5767 25.196 15.9517 25.2812 16.3835 25.2812C16.8381 25.2812 17.2216 25.1847 17.5341 24.9915C17.8523 24.7926 18.0938 24.5028 18.2585 24.1222C18.4233 23.7415 18.5057 23.2727 18.5057 22.7159V10.5455Z" fill="white"/>
<path d="M51.5057 10.5455H55.1534V22.7159C55.1534 23.8409 54.9006 24.8182 54.3949 25.6477C53.8949 26.4773 53.1989 27.1165 52.3068 27.5653C51.4148 28.0142 50.3778 28.2386 49.196 28.2386C48.1449 28.2386 47.1903 28.054 46.3324 27.6847C45.4801 27.3097 44.804 26.7415 44.304 25.9801C43.804 25.2131 43.5568 24.25 43.5625 23.0909H47.2358C47.2472 23.5511 47.3409 23.946 47.517 24.2756C47.6989 24.5994 47.946 24.8494 48.2585 25.0256C48.5767 25.196 48.9517 25.2812 49.3835 25.2812C49.8381 25.2812 50.2216 25.1847 50.5341 24.9915C50.8523 24.7926 51.0938 24.5028 51.2585 24.1222C51.4233 23.7415 51.5057 23.2727 51.5057 22.7159V10.5455ZM64.0511 28.2557C62.7273 28.2557 61.5824 27.9744 60.6165 27.4119C59.6563 26.8437 58.9148 26.054 58.392 25.0426C57.8693 24.0256 57.608 22.8466 57.608 21.5057C57.608 20.1534 57.8693 18.9716 58.392 17.9602C58.9148 16.9432 59.6563 16.1534 60.6165 15.5909C61.5824 15.0227 62.7273 14.7386 64.0511 14.7386C65.375 14.7386 66.517 15.0227 67.4773 15.5909C68.4432 16.1534 69.1875 16.9432 69.7102 17.9602C70.233 18.9716 70.4943 20.1534 70.4943 21.5057C70.4943 22.8466 70.233 24.0256 69.7102 25.0426C69.1875 26.054 68.4432 26.8437 67.4773 27.4119C66.517 27.9744 65.375 28.2557 64.0511 28.2557ZM64.0682 25.4432C64.6705 25.4432 65.1733 25.2727 65.5767 24.9318C65.9801 24.5852 66.2841 24.1136 66.4886 23.517C66.6989 22.9205 66.804 22.2415 66.804 21.4801C66.804 20.7188 66.6989 20.0398 66.4886 19.4432C66.2841 18.8466 65.9801 18.375 65.5767 18.0284C65.1733 17.6818 64.6705 17.5085 64.0682 17.5085C63.4602 17.5085 62.9489 17.6818 62.5341 18.0284C62.125 18.375 61.8153 18.8466 61.6051 19.4432C61.4006 20.0398 61.2983 20.7188 61.2983 21.4801C61.2983 22.2415 61.4006 22.9205 61.6051 23.517C61.8153 24.1136 62.125 24.5852 62.5341 24.9318C62.9489 25.2727 63.4602 25.4432 64.0682 25.4432ZM72.9233 28V10.5455H76.554V17.108H76.6648C76.8239 16.7557 77.054 16.3977 77.3551 16.0341C77.6619 15.6648 78.0597 15.358 78.5483 15.1136C79.0426 14.8636 79.6563 14.7386 80.3892 14.7386C81.3438 14.7386 82.2244 14.9886 83.0312 15.4886C83.8381 15.983 84.483 16.7301 84.9659 17.7301C85.4489 18.7244 85.6903 19.9716 85.6903 21.4716C85.6903 22.9318 85.4545 24.1648 84.983 25.1705C84.517 26.1705 83.8807 26.929 83.0739 27.446C82.2727 27.9574 81.375 28.2131 80.3807 28.2131C79.6761 28.2131 79.0767 28.0966 78.5824 27.8636C78.0938 27.6307 77.6932 27.3381 77.3807 26.9858C77.0682 26.6278 76.8295 26.267 76.6648 25.9034H76.5028V28H72.9233ZM76.4773 21.4545C76.4773 22.233 76.5852 22.9119 76.8011 23.4915C77.017 24.071 77.3295 24.5227 77.7386 24.8466C78.1477 25.1648 78.6449 25.3239 79.2301 25.3239C79.821 25.3239 80.321 25.1619 80.7301 24.8381C81.1392 24.5085 81.4489 24.054 81.6591 23.4744C81.875 22.8892 81.983 22.2159 81.983 21.4545C81.983 20.6989 81.8778 20.0341 81.6676 19.4602C81.4574 18.8864 81.1477 18.4375 80.7386 18.1136C80.3295 17.7898 79.8267 17.6278 79.2301 17.6278C78.6392 17.6278 78.1392 17.7841 77.7301 18.0966C77.3267 18.4091 77.017 18.8523 76.8011 19.4261C76.5852 20 76.4773 20.6761 76.4773 21.4545ZM93.071 13.5881V10.5455H107.406V13.5881H102.062V28H98.4148V13.5881H93.071ZM108.339 28V14.9091H111.859V17.1932H111.996C112.234 16.3807 112.635 15.767 113.197 15.3523C113.76 14.9318 114.408 14.7216 115.141 14.7216C115.322 14.7216 115.518 14.733 115.729 14.7557C115.939 14.7784 116.124 14.8097 116.283 14.8494V18.071C116.112 18.0199 115.876 17.9744 115.575 17.9347C115.274 17.8949 114.999 17.875 114.749 17.875C114.214 17.875 113.737 17.9915 113.317 18.2244C112.902 18.4517 112.572 18.7699 112.328 19.179C112.089 19.5881 111.97 20.0597 111.97 20.5938V28H108.339ZM121.518 28.2472C120.683 28.2472 119.938 28.1023 119.285 27.8125C118.631 27.517 118.114 27.0824 117.734 26.5085C117.359 25.929 117.171 25.2074 117.171 24.3438C117.171 23.6165 117.305 23.0057 117.572 22.5114C117.839 22.017 118.202 21.6193 118.663 21.3182C119.123 21.017 119.646 20.7898 120.231 20.6364C120.822 20.483 121.441 20.375 122.089 20.3125C122.85 20.233 123.464 20.1591 123.93 20.0909C124.396 20.017 124.734 19.9091 124.944 19.767C125.154 19.625 125.259 19.4148 125.259 19.1364V19.0852C125.259 18.5455 125.089 18.1278 124.748 17.8324C124.413 17.5369 123.935 17.3892 123.316 17.3892C122.663 17.3892 122.143 17.5341 121.756 17.8239C121.37 18.108 121.114 18.4659 120.989 18.8977L117.631 18.625C117.802 17.8295 118.137 17.142 118.637 16.5625C119.137 15.9773 119.782 15.5284 120.572 15.2159C121.367 14.8977 122.288 14.7386 123.333 14.7386C124.06 14.7386 124.756 14.8239 125.421 14.9943C126.092 15.1648 126.685 15.429 127.202 15.7869C127.725 16.1449 128.137 16.6051 128.438 17.1676C128.739 17.7244 128.89 18.392 128.89 19.1705V28H125.447V26.1847H125.344C125.134 26.5938 124.853 26.9545 124.501 27.267C124.148 27.5739 123.725 27.8153 123.231 27.9915C122.737 28.1619 122.165 28.2472 121.518 28.2472ZM122.558 25.7415C123.092 25.7415 123.563 25.6364 123.972 25.4261C124.381 25.2102 124.702 24.9205 124.935 24.5568C125.168 24.1932 125.285 23.7812 125.285 23.321V21.9318C125.171 22.0057 125.015 22.0739 124.816 22.1364C124.623 22.1932 124.404 22.2472 124.16 22.2983C123.915 22.3437 123.671 22.3864 123.427 22.4261C123.183 22.4602 122.961 22.4915 122.762 22.5199C122.336 22.5824 121.964 22.6818 121.646 22.8182C121.327 22.9545 121.08 23.1392 120.904 23.3722C120.728 23.5994 120.64 23.8835 120.64 24.2244C120.64 24.7188 120.819 25.0966 121.177 25.358C121.54 25.6136 122.001 25.7415 122.558 25.7415ZM137.621 28.2557C136.281 28.2557 135.127 27.9716 134.161 27.4034C133.201 26.8295 132.462 26.0341 131.945 25.017C131.434 24 131.178 22.8295 131.178 21.5057C131.178 20.1648 131.437 18.9886 131.954 17.9773C132.477 16.9602 133.218 16.1676 134.178 15.5994C135.138 15.0256 136.281 14.7386 137.604 14.7386C138.746 14.7386 139.746 14.946 140.604 15.3608C141.462 15.7756 142.141 16.358 142.641 17.108C143.141 17.858 143.417 18.7386 143.468 19.75H140.042C139.945 19.0966 139.69 18.571 139.275 18.1733C138.866 17.7699 138.329 17.5682 137.664 17.5682C137.102 17.5682 136.61 17.7216 136.19 18.0284C135.775 18.3295 135.451 18.7699 135.218 19.3494C134.985 19.929 134.869 20.6307 134.869 21.4545C134.869 22.2898 134.982 23 135.21 23.5852C135.442 24.1705 135.769 24.6165 136.19 24.9233C136.61 25.2301 137.102 25.3835 137.664 25.3835C138.079 25.3835 138.451 25.2983 138.781 25.1278C139.116 24.9574 139.391 24.7102 139.607 24.3864C139.829 24.0568 139.974 23.6619 140.042 23.2017H143.468C143.411 24.2017 143.138 25.0824 142.65 25.8438C142.167 26.5994 141.499 27.1903 140.647 27.6165C139.795 28.0426 138.786 28.2557 137.621 28.2557ZM149.082 24.233L149.091 19.8778H149.619L153.812 14.9091H157.98L152.347 21.4886H151.486L149.082 24.233ZM145.793 28V10.5455H149.423V28H145.793ZM153.974 28L150.122 22.2983L152.543 19.733L158.227 28H153.974ZM165.188 28.2557C163.842 28.2557 162.683 27.983 161.711 27.4375C160.745 26.8864 160.001 26.108 159.478 25.1023C158.955 24.0909 158.694 22.8949 158.694 21.5142C158.694 20.1676 158.955 18.9858 159.478 17.9688C160.001 16.9517 160.737 16.1591 161.685 15.5909C162.64 15.0227 163.759 14.7386 165.043 14.7386C165.907 14.7386 166.711 14.8778 167.455 15.1562C168.205 15.429 168.859 15.8409 169.415 16.392C169.978 16.9432 170.415 17.6364 170.728 18.4716C171.04 19.3011 171.197 20.2727 171.197 21.3864V22.3835H160.143V20.1335H167.779C167.779 19.6108 167.665 19.1477 167.438 18.7443C167.211 18.3409 166.896 18.0256 166.492 17.7983C166.094 17.5653 165.631 17.4489 165.103 17.4489C164.552 17.4489 164.063 17.5767 163.637 17.8324C163.217 18.0824 162.887 18.4205 162.648 18.8466C162.41 19.267 162.288 19.7358 162.282 20.2528V22.392C162.282 23.0398 162.401 23.5994 162.64 24.071C162.884 24.5426 163.228 24.9062 163.671 25.1619C164.114 25.4176 164.64 25.5455 165.248 25.5455C165.651 25.5455 166.021 25.4886 166.356 25.375C166.691 25.2614 166.978 25.0909 167.217 24.8636C167.455 24.6364 167.637 24.358 167.762 24.0284L171.12 24.25C170.95 25.0568 170.6 25.7614 170.072 26.3636C169.549 26.9602 168.873 27.4261 168.043 27.7614C167.219 28.0909 166.268 28.2557 165.188 28.2557ZM173.566 28V14.9091H177.086V17.1932H177.222C177.461 16.3807 177.862 15.767 178.424 15.3523C178.987 14.9318 179.634 14.7216 180.367 14.7216C180.549 14.7216 180.745 14.733 180.955 14.7557C181.165 14.7784 181.35 14.8097 181.509 14.8494V18.071C181.339 18.0199 181.103 17.9744 180.802 17.9347C180.501 17.8949 180.225 17.875 179.975 17.875C179.441 17.875 178.964 17.9915 178.543 18.2244C178.129 18.4517 177.799 18.7699 177.555 19.179C177.316 19.5881 177.197 20.0597 177.197 20.5938V28H173.566ZM189.009 28V10.5455H195.896C197.219 10.5455 198.347 10.7983 199.279 11.304C200.211 11.804 200.921 12.5 201.41 13.392C201.904 14.2784 202.151 15.3011 202.151 16.4602C202.151 17.6193 201.901 18.642 201.401 19.5284C200.901 20.4148 200.177 21.1051 199.228 21.5994C198.285 22.0937 197.143 22.3409 195.802 22.3409H191.413V19.3835H195.205C195.915 19.3835 196.501 19.2614 196.961 19.017C197.427 18.767 197.773 18.4233 198.001 17.9858C198.234 17.5426 198.35 17.0341 198.35 16.4602C198.35 15.8807 198.234 15.375 198.001 14.9432C197.773 14.5057 197.427 14.1676 196.961 13.929C196.495 13.6847 195.904 13.5625 195.188 13.5625H192.7V28H189.009ZM204.48 28V14.9091H208V17.1932H208.136C208.375 16.3807 208.776 15.767 209.338 15.3523C209.901 14.9318 210.548 14.7216 211.281 14.7216C211.463 14.7216 211.659 14.733 211.869 14.7557C212.08 14.7784 212.264 14.8097 212.423 14.8494V18.071C212.253 18.0199 212.017 17.9744 211.716 17.9347C211.415 17.8949 211.139 17.875 210.889 17.875C210.355 17.875 209.878 17.9915 209.457 18.2244C209.043 18.4517 208.713 18.7699 208.469 19.179C208.23 19.5881 208.111 20.0597 208.111 20.5938V28H204.48ZM219.606 28.2557C218.282 28.2557 217.137 27.9744 216.171 27.4119C215.211 26.8437 214.469 26.054 213.947 25.0426C213.424 24.0256 213.163 22.8466 213.163 21.5057C213.163 20.1534 213.424 18.9716 213.947 17.9602C214.469 16.9432 215.211 16.1534 216.171 15.5909C217.137 15.0227 218.282 14.7386 219.606 14.7386C220.93 14.7386 222.072 15.0227 223.032 15.5909C223.998 16.1534 224.742 16.9432 225.265 17.9602C225.788 18.9716 226.049 20.1534 226.049 21.5057C226.049 22.8466 225.788 24.0256 225.265 25.0426C224.742 26.054 223.998 26.8437 223.032 27.4119C222.072 27.9744 220.93 28.2557 219.606 28.2557ZM219.623 25.4432C220.225 25.4432 220.728 25.2727 221.131 24.9318C221.535 24.5852 221.839 24.1136 222.043 23.517C222.254 22.9205 222.359 22.2415 222.359 21.4801C222.359 20.7188 222.254 20.0398 222.043 19.4432C221.839 18.8466 221.535 18.375 221.131 18.0284C220.728 17.6818 220.225 17.5085 219.623 17.5085C219.015 17.5085 218.504 17.6818 218.089 18.0284C217.68 18.375 217.37 18.8466 217.16 19.4432C216.955 20.0398 216.853 20.7188 216.853 21.4801C216.853 22.2415 216.955 22.9205 217.16 23.517C217.37 24.1136 217.68 24.5852 218.089 24.9318C218.504 25.2727 219.015 25.4432 219.623 25.4432Z" fill="#00AAAA"/>
</svg>
